<svg viewBox="0 0 19 18" xmlns="http://www.w3.org/2000/svg"><path fill-rule="evenodd" clip-rule="evenodd" d="M14.9301 7.00573C14.9286 6.99938 14.9266 6.99032 14.9242 6.97819C14.9145 6.92936 14.9042 6.86046 14.892 6.76283C14.8849 6.70685 14.8772 6.64031 14.8685 6.56639C14.8498 6.40527 14.8269 6.20906 14.7984 6.01052C14.7125 5.41196 14.5569 4.6351 14.1864 3.8716C13.8115 3.09889 13.2161 2.3398 12.2645 1.79288C11.3177 1.24866 10.0705 0.944456 8.43849 0.988598C6.79716 1.03299 5.50887 1.43496 4.52589 2.09751C3.54116 2.76124 2.90808 3.65614 2.53002 4.60992C1.78634 6.4861 2.01413 8.61735 2.45887 9.89729C2.88306 11.1181 3.48094 11.7855 3.90415 12.2579C3.93422 12.2914 3.96342 12.324 3.9916 12.3557C4.20737 12.5987 4.30849 12.7331 4.36151 12.8594C4.40122 12.9539 4.43065 13.0848 4.3756 13.3394C4.1045 14.5932 4.03642 15.8293 4.03642 16.3125C4.03642 16.7008 4.35122 17.0156 4.73955 17.0156H8.78735C9.29405 17.0156 9.7264 16.8647 10.0357 16.5301C10.317 16.2258 10.4107 15.8553 10.4583 15.6225C10.4731 15.5497 10.4891 15.4577 10.5015 15.3865C10.5031 15.377 10.5047 15.3679 10.5062 15.3593C10.5284 15.3599 10.5512 15.3606 10.5746 15.3612C11.0393 15.3748 11.7319 15.3949 12.3623 15.2986C13.1766 15.1743 14.1963 14.8155 14.6098 13.7404C14.8912 13.0089 15.0294 12.3778 15.095 11.9465C15.3883 11.8763 15.6795 11.8013 15.9126 11.7123C16.1001 11.6406 16.324 11.5344 16.5079 11.3601C16.7143 11.1644 16.8594 10.891 16.8594 10.5559C16.8594 10.4185 16.8225 10.3026 16.8055 10.2517C16.7832 10.1852 16.7554 10.1195 16.7284 10.0606C16.674 9.94193 16.6019 9.80555 16.5234 9.66494C16.3653 9.38167 16.1548 9.03403 15.9411 8.68656C15.8513 8.54046 15.762 8.39595 15.6754 8.25592C15.343 7.71823 15.0515 7.24671 14.9301 7.00573ZM10.1328 3.7054C10.4691 3.89956 10.5844 4.32959 10.3902 4.66589L10.109 5.15303C9.91479 5.48933 9.48476 5.60455 9.14846 5.41039C8.81217 5.21623 8.69694 4.7862 8.8911 4.4499L9.17235 3.96276C9.36652 3.62646 9.79654 3.51124 10.1328 3.7054ZM6.61721 3.70546C6.95351 3.51129 7.38354 3.62652 7.5777 3.96282L7.85895 4.44996C8.05311 4.78626 7.93789 5.21628 7.60159 5.41044C7.26529 5.60461 6.83527 5.48938 6.6411 5.15308L6.35985 4.66594C6.16569 4.32964 6.28092 3.89962 6.61721 3.70546ZM4.8594 6.75005C4.8594 6.36172 5.1742 6.04693 5.56253 6.04693H6.12503C6.51335 6.04693 6.82815 6.36172 6.82815 6.75005C6.82815 7.13838 6.51335 7.45318 6.12503 7.45318H5.56253C5.1742 7.45318 4.8594 7.13838 4.8594 6.75005ZM9.9219 6.75005C9.9219 6.36172 10.2367 6.04693 10.625 6.04693H11.1875C11.5759 6.04693 11.8907 6.36172 11.8907 6.75005C11.8907 7.13838 11.5759 7.45318 11.1875 7.45318H10.625C10.2367 7.45318 9.9219 7.13838 9.9219 6.75005ZM7.60159 8.08966C7.93789 8.28382 8.05311 8.71384 7.85895 9.05014L7.5777 9.53728C7.38354 9.87358 6.95351 9.98881 6.61721 9.79464C6.28092 9.60048 6.16569 9.17046 6.35985 8.83416L6.6411 8.34702C6.83527 8.01072 7.26529 7.89549 7.60159 8.08966ZM9.14846 8.08971C9.48476 7.89555 9.91479 8.01077 10.109 8.34707L10.3902 8.83421C10.5844 9.17051 10.4691 9.60053 10.1328 9.7947C9.79654 9.98886 9.36652 9.87364 9.17235 9.53734L8.8911 9.0502C8.69694 8.7139 8.81216 8.28387 9.14846 8.08971Z"/></svg>
