<?xml version="1.0" encoding="UTF-8"?>
<svg width="44px" height="44px" viewBox="0 0 44 44" version="1.1" xmlns="http://www.w3.org/2000/svg" xmlns:xlink="http://www.w3.org/1999/xlink">
    <!-- Generator: Sketch 48.2 (47327) - http://www.bohemiancoding.com/sketch -->
    <title>ic_birdsinforest_dark</title>
    <desc>Created with Sketch.</desc>
    <defs></defs>
    <g id="Symbols" stroke="none" stroke-width="1" fill="none" fill-rule="evenodd">
        <g id="ic_birdsinforest_dark">
            <g>
                <path d="M20.9757127,24.9797132 C20.991783,25.1509804 21,25.3245306 21,25.5 C21,28.5375661 18.5375661,31 15.5,31 C13.3307688,31 11.4548483,29.7441876 10.5595944,27.9199185 C7.97004659,27.4737716 6,25.2169503 6,22.5 C6,20.3228511 7.26499662,18.441158 9.10007997,17.5498305 C9.03439868,17.2099986 9,16.8590164 9,16.5 C9,13.4624339 11.4624339,11 14.5,11 C16.6771489,11 18.558842,12.2649966 19.4501695,14.10008 C19.7900014,14.0343987 20.1409836,14 20.5,14 C23.5375661,14 26,16.4624339 26,19.5 C26,22.3773018 23.7905512,24.7385593 20.9757127,24.9797132 Z" id="Combined-Shape" stroke="#3C3C3C" stroke-width="2"></path>
                <rect id="Rectangle-4" fill="#3C3C3C" x="14" y="30" width="2" height="9" rx="1"></rect>
                <path d="M34.9688662,27.9688662 C34.7397545,29.6801655 33.2740092,31 31.5,31 C30.529493,31 29.6512449,30.6049927 29.0172577,29.9669802 C27.3127052,29.7318241 26,28.2692114 26,26.5 C26,25.0683595 26.859559,23.8374797 28.0907495,23.2952883 C28.0313846,23.0397919 28,22.7735611 28,22.5 C28,20.5670034 29.5670034,19 31.5,19 C32.8977011,19 34.1040474,19.8192876 34.6649965,21.0038205 C36.5213855,21.0899713 38,22.6223112 38,24.5 C38,26.2740092 36.6801655,27.7397545 34.9688662,27.9688662 Z" id="Combined-Shape" stroke="#3C3C3C" stroke-width="2"></path>
                <rect id="Rectangle-4" fill="#3C3C3C" x="30" y="30" width="2" height="9" rx="1"></rect>
                <path d="M19.7399249,9.32202473 C21.6111715,6.8072488 23.8801281,5.54448413 26.5467948,5.53373074 C28.1510606,5.5272615 21.9210347,3.80465407 19.8742746,6.16260229 C17.8710015,3.81019032 11.7754737,5.48424384 12.3679093,5.53373074 C16.4871663,5.87781746 18.9445048,7.14058213 19.7399249,9.32202473 Z" id="Path-7" fill="#3C3C3C" fill-rule="nonzero" transform="translate(19.567725, 7.116116) rotate(-16.000000) translate(-19.567725, -7.116116) "></path>
                <path d="M31.9603417,15.1421791 C33.676496,12.6718751 35.8679065,11.4313465 38.5345732,11.4205931 C40.138839,11.4141238 33.8934589,9.69591915 31.8466988,12.0538674 C29.8434257,9.7014554 23.7632521,11.3711062 24.3556877,11.4205931 C28.4749447,11.7646798 31.0098293,13.0052085 31.9603417,15.1421791 Z" id="Path-7" fill="#3C3C3C" fill-rule="nonzero" transform="translate(31.555190, 12.971017) scale(-1, 1) rotate(-15.000000) translate(-31.555190, -12.971017) "></path>
            </g>
        </g>
    </g>
</svg>