<?xml version="1.0" encoding="UTF-8"?>
<svg width="36px" height="36px" viewBox="0 0 36 36" version="1.1" xmlns="http://www.w3.org/2000/svg" xmlns:xlink="http://www.w3.org/1999/xlink">
    <!-- Generator: Sketch 48.2 (47327) - http://www.bohemiancoding.com/sketch -->
    <title>ic_pro_lst</title>
    <desc>Created with Sketch.</desc>
    <defs>
        <linearGradient x1="100%" y1="43.2411545%" x2="0%" y2="39.5831462%" id="linearGradient-1">
            <stop stop-color="#068691" offset="0%"></stop>
            <stop stop-color="#31B1BC" offset="50.3228725%"></stop>
            <stop stop-color="#0D8D98" offset="100%"></stop>
        </linearGradient>
        <linearGradient x1="100%" y1="43.2411545%" x2="0%" y2="39.5831462%" id="linearGradient-2">
            <stop stop-color="#CD600A" offset="0%"></stop>
            <stop stop-color="#D87425" offset="50.3228725%"></stop>
            <stop stop-color="#E48B44" offset="100%"></stop>
        </linearGradient>
        <linearGradient x1="100%" y1="43.2411545%" x2="0%" y2="39.5831462%" id="linearGradient-3">
            <stop stop-color="#9EC562" offset="0%"></stop>
            <stop stop-color="#709E2B" offset="50.3228725%"></stop>
            <stop stop-color="#57880C" offset="100%"></stop>
        </linearGradient>
    </defs>
    <g id="Symbols" stroke="none" stroke-width="1" fill="none" fill-rule="evenodd">
        <g id="ic_pro_lst">
            <g>
                <rect id="Rectangle-8" x="0" y="0" width="36" height="36"></rect>
                <g id="logo" transform="translate(0.000000, 2.000000)">
                    <g id="logo-export-copy-4">
                        <path d="M10.1222248,23.0325264 C13.296175,20.4538038 16.6135091,18.8867112 20.0742272,18.3312485 C23.5349453,17.7757858 25.9490973,17.5871755 27.3166832,17.7654176 L33.8986249,22.4744906 C33.9352045,22.499332 33.9447203,22.5491235 33.919879,22.5857032 C33.9016525,22.6125422 33.8690307,22.6257288 33.8372734,22.6190944 C27.9300522,21.3850298 23.185529,21.0660675 19.6037038,21.6622074 C15.838541,22.2888611 12.678048,22.745634 10.1222248,23.0325264 Z" id="Path-4" fill="#945D39"></path>
                        <path d="M25.1085305,19.0560126 C25.1085305,19.0560126 19.8911186,18.3277625 16.1257334,12.011218 C12.3603483,5.69467364 12.6561603,5.7120634 12.6561603,5.7120634 L14.6685828,0.142768475 C14.7200516,0.000330684662 14.799323,0.00289470639 14.846321,0.145790522 C14.846321,0.145790522 16.6639626,6.08294056 20.5741485,10.725553 C24.4843344,15.3681655 25.1085305,19.0560126 25.1085305,19.0560126 L25.1085305,19.0560126 Z" id="Path-4" fill="#334F30"></path>
                        <path d="M4.77091705,27.9224405 C4.98081073,28.027192 9.39147697,28.3938811 9.39147697,28.3938811 C9.39147697,28.3938811 15.3306471,22.0697791 16.29249,17.2798109 C17.254333,12.4898428 16.0541242,11.7066165 16.0541242,11.7066165 L13.1978374,7.45708609 C13.1131236,7.33105046 13.0435118,7.35258709 13.0409028,7.50279921 C13.0409028,7.50279921 13.0616714,13.704962 10.6977998,19.272907 C9.90056867,21.1507328 4.56102336,27.8176891 4.77091705,27.9224405 L4.77091705,27.9224405 Z" id="Path-4" fill="#17615E"></path>
                        <path d="M4.7671332,27.9260405 C4.7671332,27.9260405 13.8140202,19.137099 17.9305019,19.137099 C22.0469836,19.137099 31.3718629,28.3857681 31.3718629,28.3857681 C31.3718629,28.3857681 29.9971042,30.9614215 28.6253318,30.9614215 C27.2535594,30.9614215 22.5827941,24.8151994 17.9305019,24.673592 C13.2782098,24.5319845 9.36378134,31.2712993 7.50144788,30.9614215 C5.63911441,30.6515436 4.7671332,27.9260405 4.7671332,27.9260405 Z" id="Path-1" fill="url(#linearGradient-1)"></path>
                        <path d="M34.6014978,22.7570625 C34.6014978,22.7570625 22.3080154,19.6309916 20.1878706,16.148883 C18.0677258,12.6667745 21.2983641,0.0154952549 21.2983641,0.0154952549 C21.2983641,0.0154952549 24.2436052,-0.148163709 24.9501202,1.01221082 C25.6566353,2.17258535 22.7237071,9.28909759 24.9968158,13.2973784 C27.2699245,17.3056591 35.139709,17.1458482 35.8297247,18.8807844 C36.5197404,20.6157206 34.6014978,22.7570625 34.6014978,22.7570625 L34.6014978,22.7570625 Z" id="Path-1" fill="url(#linearGradient-2)"></path>
                        <path d="M1.39850217,22.7570625 C1.39850217,22.7570625 13.6919846,19.6309916 15.8121294,16.148883 C17.9322742,12.6667745 14.7016359,0.0154952549 14.7016359,0.0154952549 C14.7016359,0.0154952549 11.7563948,-0.148163709 11.0498798,1.01221082 C10.3433647,2.17258535 13.2762929,9.28909759 11.0031842,13.2973784 C8.73007546,17.3056591 0.860290951,17.1458482 0.170275266,18.8807844 C-0.519740418,20.6157206 1.39850217,22.7570625 1.39850217,22.7570625 L1.39850217,22.7570625 Z" id="Path-1" fill="url(#linearGradient-3)"></path>
                    </g>
                </g>
            </g>
        </g>
    </g>
</svg>