<svg width="16" height="16" viewBox="0 0 16 16" fill="currentColor" xmlns="http://www.w3.org/2000/svg"><path d="M13.5944 4.36359L9.95845 7.99992L13.5944 11.6361C14.1352 12.1771 14.1352 13.0535 13.5944 13.5946C13.3242 13.8648 12.9699 14 12.6158 14C12.2611 14 11.9068 13.865 11.6367 13.5946L8.00002 9.95799L4.36357 13.5945C4.09338 13.8647 3.73907 14 3.38465 14C3.03033 14 2.67626 13.865 2.40583 13.5945C1.865 13.0537 1.865 12.1773 2.40583 11.636L6.04165 7.99988L2.40562 4.36359C1.86479 3.82276 1.86479 2.94614 2.40562 2.40531C2.94634 1.8649 3.82243 1.8649 4.36336 2.40531L7.99998 6.04164L11.6363 2.40531C12.1774 1.8649 13.0536 1.8649 13.5942 2.40531C14.1352 2.94614 14.1352 3.82276 13.5944 4.36359Z"/></svg>
